<?xml version="1.0" encoding="UTF-8" standalone="no"?>
<!DOCTYPE svg PUBLIC "-//W3C//DTD SVG 1.1//EN" "http://www.w3.org/Graphics/SVG/1.1/DTD/svg11.dtd">
<svg xmlns="http://www.w3.org/2000/svg" xmlns:xl="http://www.w3.org/1999/xlink" xmlns:dc="http://purl.org/dc/elements/1.1/" version="1.1" viewBox="0 0 1200 630" width="1200" height="630">
  <defs/>
  <g id="Canvas_19" fill="none" stroke-opacity="1" stroke="none" stroke-dasharray="none" fill-opacity="1">
    <title>Canvas 19</title>
    <g id="Canvas_19_Layer_1">
      <title>Layer 1</title>
      <g id="Group_38">
        <g id="Graphic_13">
          <path d="M 89.35657 241.56806 C 65.47478 300.8233 77.54655 371.1869 125.57189 419.212 C 189.7219 483.3623 293.7295 483.3623 357.8795 419.212 C 367.47564 409.6159 375.6363 399.12795 382.3615 388.01493 C 406.2433 328.7597 394.17153 258.3961 346.1462 210.371 C 281.9962 146.22068 177.98857 146.22068 113.83857 210.371 C 104.24244 219.9671 96.08177 230.45505 89.35658 241.56807 Z" fill="#00963e"/>
        </g>
        <g id="Graphic_12">
          <path d="M 77.62326 388.01493 C 84.34845 399.12795 92.50912 409.6159 102.10525 419.212 C 166.25525 483.3623 270.26287 483.3623 334.41287 419.212 C 382.4382 371.1869 394.51 300.8233 370.6282 241.56806 C 363.903 230.45505 355.74232 219.9671 346.1462 210.371 C 281.9962 146.22068 177.98857 146.22068 113.83857 210.371 C 65.81323 258.3961 53.74146 328.7597 77.62325 388.01494 Z" fill="#302783"/>
        </g>
        <g id="Graphic_11">
          <path d="M 229.99245 139.20862 C 191.94513 141.91674 154.66079 157.81532 125.57189 186.90437 C 61.42156 251.05437 61.42156 355.062 125.57189 419.212 C 154.66075 448.301 191.94504 464.1996 229.9923 466.90773 C 268.03963 464.1996 305.32397 448.30104 334.41287 419.212 C 398.5632 355.062 398.5632 251.05437 334.41287 186.90437 C 305.324 157.81536 268.03972 141.91678 229.99245 139.20863 Z" fill="#e40313"/>
        </g>
        <g id="Graphic_10">
          <path d="M 77.62325 388.01494 C 58.513373 340.59973 62.42448 286.07185 89.35658 241.56807 C 97.37512 221.67252 109.4469 203.02928 125.57189 186.90437 C 154.66079 157.81532 191.94513 141.91674 229.99245 139.20862 C 184.13364 135.94447 137.16639 151.84305 102.10525 186.90437 C 47.55105 241.4583 39.390387 324.83724 77.62326 388.01493 Z" fill="#e6007e"/>
        </g>
        <g id="Graphic_9">
          <path d="M 382.3615 388.01493 C 420.59437 324.83724 412.4337 241.4583 357.8795 186.90437 C 322.8184 151.84309 275.8512 135.9445 229.99245 139.20862 C 268.03972 141.91678 305.324 157.81536 334.41287 186.90437 C 350.53787 203.02928 362.60964 221.67252 370.6282 241.56806 C 397.5603 286.07185 401.4714 340.59973 382.3615 388.01494 Z" fill="#fe0"/>
        </g>
        <g id="Graphic_8">
          <path d="M 382.3615 388.01493 C 375.6363 399.12795 367.47564 409.6159 357.8795 419.212 C 322.81837 454.2733 275.85112 470.1719 229.9923 466.90773 C 184.13354 470.17186 137.16635 454.2733 102.10525 419.212 C 92.50912 409.6159 84.34845 399.12795 77.62326 388.01493 C 85.6418 407.9105 97.71358 426.5537 113.83857 442.67863 C 177.98857 506.82896 281.9962 506.82896 346.1462 442.67863 C 362.2712 426.5537 374.34296 407.9105 382.3615 388.01494 Z" fill="#009fe3"/>
        </g>
        <g id="Graphic_7">
          <circle cx="229.99238" cy="314.7915" r="158.400151104613" fill="black"/>
        </g>
        <g id="Group_3">
          <g id="Graphic_6">
            <text transform="translate(135.28489 239.84783)" fill="white">
              <tspan font-family="Helvetica Neue" font-weight="bold" font-size="31.8603631906603" fill="white" x="21316282e-20" y="31">Civil Se</tspan>
              <tspan font-family="Helvetica Neue" font-weight="bold" font-size="31.8603631906603" fill="white" y="31">r</tspan>
              <tspan font-family="Helvetica Neue" font-weight="bold" font-size="31.8603631906603" fill="white" y="31">vice</tspan>
            </text>
          </g>
          <g id="Graphic_5">
            <text transform="translate(101.67588 266.50543)" fill="white">
              <tspan font-family="Helvetica Neue" font-weight="bold" font-size="78.5531092449743" fill="white" x="5968559e-19" y="77">LGBT+</tspan>
            </text>
          </g>
          <g id="Graphic_4">
            <text transform="translate(165.3955 350.811)" fill="white">
              <tspan font-family="Helvetica Neue" font-weight="bold" font-size="31.8603631906603" fill="white" x="0" y="31">Network</tspan>
            </text>
          </g>
        </g>
        <g id="Group_37">
          <title>Content
Management 
System</title>
          <g id="Graphic_14">
            <path d="M 544.82176 166.25303 L 560.8169 166.25303 C 560.3258 161.90346 559.1332 158.04502 557.23904 154.6776 C 555.3449 151.31019 552.9421 148.48652 550.0307 146.2065 C 547.1193 143.92647 543.8221 142.19018 540.139 140.99755 C 536.45586 139.80493 532.5448 139.20862 528.4057 139.20862 C 522.653 139.20862 517.4792 140.22585 512.8841 142.26033 C 508.289 144.2948 504.413 147.10094 501.25605 150.67882 C 498.0991 154.2567 495.6788 158.44836 493.9951 163.25395 C 492.3114 168.05953 491.46955 173.26842 491.46955 178.88078 C 491.46955 184.35283 492.3114 189.45649 493.9951 194.19191 C 495.6788 198.92734 498.0991 203.04885 501.25605 206.55658 C 504.413 210.0643 508.289 212.81782 512.8841 214.81722 C 517.4792 216.81663 522.653 217.81631 528.4057 217.81631 C 533.0359 217.81631 537.2802 217.11478 541.1387 215.7117 C 544.99717 214.3086 548.3645 212.27415 551.24086 209.60828 C 554.1172 206.9424 556.43226 203.71535 558.1861 199.92701 C 559.94 196.13867 561.02736 191.8944 561.4483 187.19404 L 545.45315 187.19404 C 544.82176 192.24516 543.08546 196.31406 540.2442 199.40086 C 537.40295 202.48765 533.4568 204.03103 528.4057 204.03103 C 524.6875 204.03103 521.5306 203.31196 518.9349 201.8738 C 516.3392 200.43562 514.2346 198.52394 512.621 196.1387 C 511.00747 193.75344 509.8324 191.07007 509.0958 188.0885 C 508.35915 185.10694 507.99085 182.03773 507.99085 178.88078 C 507.99085 175.58352 508.35915 172.39154 509.0958 169.30474 C 509.8324 166.21794 511.00747 163.46442 512.621 161.0441 C 514.2346 158.62376 516.3392 156.69454 518.9349 155.25638 C 521.5306 153.81821 524.6875 153.09914 528.4057 153.09914 C 530.4402 153.09914 532.38693 153.43237 534.246 154.09883 C 536.1051 154.7653 537.77126 155.69483 539.2445 156.88746 C 540.71775 158.08009 541.94544 159.46562 542.9276 161.0441 C 543.90976 162.62257 544.54114 164.35886 544.82176 166.25303 Z" fill="black"/>
          </g>
          <g id="Graphic_15">
            <path d="M 584.3887 188.98297 C 584.3887 186.80818 584.59915 184.6685 585.0201 182.56387 C 585.441 180.45923 586.1601 178.60017 587.1773 176.98662 C 588.19455 175.37306 589.545 174.05769 591.2287 173.04045 C 592.9124 172.0232 595.017 171.5146 597.5426 171.5146 C 600.06814 171.5146 602.1903 172.0232 603.9091 173.04045 C 605.62785 174.05769 606.99585 175.37306 608.0131 176.98662 C 609.0303 178.60017 609.7494 180.45923 610.1703 182.56387 C 610.59125 184.6685 610.8017 186.80818 610.8017 188.98297 C 610.8017 191.15776 610.59125 193.2799 610.1703 195.34946 C 609.7494 197.41901 609.0303 199.27808 608.0131 200.9267 C 606.99585 202.57534 605.62785 203.89072 603.9091 204.87288 C 602.1903 205.85504 600.06814 206.34611 597.5426 206.34611 C 595.017 206.34611 592.9124 205.85504 591.2287 204.87288 C 589.545 203.89072 588.19455 202.57534 587.1773 200.9267 C 586.1601 199.27808 585.441 197.41901 585.0201 195.34946 C 584.59915 193.2799 584.3887 191.15776 584.3887 188.98297 Z M 569.44586 188.98297 C 569.44586 193.33255 570.1123 197.26114 571.44525 200.76886 C 572.7782 204.27659 574.6723 207.27564 577.1277 209.76613 C 579.58314 212.2566 582.5296 214.1683 585.96715 215.50123 C 589.4047 216.83416 593.26316 217.50062 597.5426 217.50062 C 601.822 217.50062 605.698 216.83416 609.1706 215.50123 C 612.6433 214.1683 615.60726 212.2566 618.06266 209.76613 C 620.5181 207.27564 622.4122 204.27659 623.74515 200.76886 C 625.0781 197.26114 625.74454 193.33255 625.74454 188.98297 C 625.74454 184.6334 625.0781 180.68726 623.74515 177.14446 C 622.4122 173.60166 620.5181 170.58506 618.06266 168.09458 C 615.60726 165.6041 612.6433 163.67488 609.1706 162.30687 C 605.698 160.93885 601.822 160.25486 597.5426 160.25486 C 593.26316 160.25486 589.4047 160.93885 585.96715 162.30687 C 582.5296 163.67488 579.58314 165.6041 577.1277 168.09458 C 574.6723 170.58506 572.7782 173.60166 571.44525 177.14446 C 570.1123 180.68726 569.44586 184.6334 569.44586 188.98297 Z" fill="black"/>
          </g>
          <g id="Graphic_16">
            <path d="M 635.4258 161.7281 L 635.4258 216.13261 L 650.3686 216.13261 L 650.3686 187.61496 C 650.3686 182.07276 651.2806 178.09155 653.10465 175.67123 C 654.9287 173.2509 657.8751 172.04075 661.9441 172.04075 C 665.52194 172.04075 668.0124 173.14567 669.4155 175.35553 C 670.8186 177.5654 671.5201 180.91522 671.5201 185.4051 L 671.5201 216.13261 L 686.4629 216.13261 L 686.4629 182.6691 C 686.4629 179.30168 686.1648 176.23247 685.5685 173.46137 C 684.97215 170.69027 683.9374 168.34013 682.46415 166.41088 C 680.9909 164.48163 678.974 162.97334 676.41335 161.88594 C 673.8527 160.79855 670.57304 160.25486 666.5742 160.25486 C 663.4173 160.25486 660.3305 160.97393 657.3139 162.4121 C 654.29725 163.85026 651.8419 166.14779 649.9477 169.30474 L 649.632 169.30474 L 649.632 161.7281 Z" fill="black"/>
          </g>
          <g id="Graphic_17">
            <path d="M 716.7695 161.7281 L 716.7695 145.41726 L 701.8267 145.41726 L 701.8267 161.7281 L 692.7768 161.7281 L 692.7768 171.72506 L 701.8267 171.72506 L 701.8267 203.82057 C 701.8267 206.5566 702.2827 208.76642 703.1947 210.45013 C 704.1067 212.13384 705.3519 213.43168 706.9304 214.34368 C 708.5089 215.2557 710.3329 215.86954 712.4024 216.18523 C 714.472 216.50093 716.6643 216.65877 718.9794 216.65877 C 720.4526 216.65877 721.9609 216.6237 723.5043 216.55354 C 725.0477 216.48338 726.4508 216.34308 727.71355 216.13261 L 727.71355 204.55718 C 727.012 204.6975 726.2754 204.80272 725.5037 204.87288 C 724.732 204.94303 723.9252 204.9781 723.0834 204.9781 C 720.5578 204.9781 718.8741 204.5572 718.0323 203.71534 C 717.1904 202.87348 716.7695 201.1898 716.7695 198.66424 L 716.7695 171.72506 L 727.71355 171.72506 L 727.71355 161.7281 Z" fill="black"/>
          </g>
          <g id="Graphic_18">
            <path d="M 771.4897 183.09002 L 747.1813 183.09002 C 747.2515 182.0377 747.4795 180.8451 747.8653 179.51216 C 748.2512 178.17923 748.9176 176.91647 749.8647 175.72384 C 750.8118 174.53122 752.0746 173.53153 753.653 172.72475 C 755.2315 171.91798 757.21335 171.5146 759.5986 171.5146 C 763.2466 171.5146 765.9651 172.49674 767.754 174.46107 C 769.543 176.4254 770.7882 179.30168 771.4897 183.09002 Z M 747.1813 192.56083 L 786.43255 192.56083 C 786.7132 188.35156 786.3624 184.31774 785.3802 180.45924 C 784.3981 176.60075 782.8021 173.16323 780.5922 170.14659 C 778.3824 167.12995 775.5587 164.7272 772.1211 162.93825 C 768.6835 161.14931 764.6497 160.25486 760.0195 160.25486 C 755.8804 160.25486 752.1097 160.99147 748.7072 162.46471 C 745.3047 163.93796 742.3758 165.95487 739.9204 168.5155 C 737.465 171.07614 735.5708 174.11028 734.2379 177.618 C 732.90495 181.12573 732.2385 184.914 732.2385 188.98297 C 732.2385 193.19224 732.8874 197.05068 734.1853 200.5584 C 735.4831 204.06612 737.3247 207.08272 739.7099 209.60828 C 742.0952 212.13384 745.0065 214.0806 748.4441 215.4486 C 751.8817 216.81662 755.7401 217.50062 760.0195 217.50062 C 766.1931 217.50062 771.4546 216.09755 775.8042 213.29137 C 780.1538 210.4852 783.3808 205.82 785.4855 199.29563 L 772.3316 199.29563 C 771.8405 200.97933 770.5076 202.57532 768.3328 204.08364 C 766.158 205.59197 763.5623 206.34611 760.5457 206.34611 C 756.3364 206.34611 753.1094 205.25874 750.8644 203.08395 C 748.6195 200.90916 747.3918 197.4015 747.1813 192.56083 Z" fill="black"/>
          </g>
          <g id="Graphic_19">
            <path d="M 795.272 161.7281 L 795.272 216.13261 L 810.2148 216.13261 L 810.2148 187.61496 C 810.2148 182.07276 811.1268 178.09155 812.9508 175.67123 C 814.7748 173.2509 817.7213 172.04075 821.7902 172.04075 C 825.3681 172.04075 827.8586 173.14567 829.2616 175.35553 C 830.6647 177.5654 831.3663 180.91522 831.3663 185.4051 L 831.3663 216.13261 L 846.3091 216.13261 L 846.3091 182.6691 C 846.3091 179.30168 846.0109 176.23247 845.4146 173.46137 C 844.8183 170.69027 843.7836 168.34013 842.3103 166.41088 C 840.8371 164.48163 838.8202 162.97334 836.2595 161.88594 C 833.6989 160.79855 830.4192 160.25486 826.4204 160.25486 C 823.26345 160.25486 820.1767 160.97393 817.1601 162.4121 C 814.1434 163.85026 811.688 166.14779 809.7939 169.30474 L 809.4782 169.30474 L 809.4782 161.7281 Z" fill="black"/>
          </g>
          <g id="Graphic_20">
            <path d="M 876.6157 161.7281 L 876.6157 145.41726 L 861.6728 145.41726 L 861.6728 161.7281 L 852.623 161.7281 L 852.623 171.72506 L 861.6728 171.72506 L 861.6728 203.82057 C 861.6728 206.5566 862.1288 208.76642 863.0409 210.45013 C 863.9529 212.13384 865.1981 213.43168 866.7766 214.34368 C 868.355 215.2557 870.179 215.86954 872.2486 216.18523 C 874.3181 216.50093 876.5104 216.65877 878.8255 216.65877 C 880.2988 216.65877 881.8071 216.6237 883.3505 216.55354 C 884.8939 216.48338 886.2969 216.34308 887.5597 216.13261 L 887.5597 204.55718 C 886.8582 204.6975 886.1216 204.80272 885.3499 204.87288 C 884.5782 204.94303 883.7714 204.9781 882.9295 204.9781 C 880.404 204.9781 878.7203 204.5572 877.8784 203.71534 C 877.0366 202.87348 876.6157 201.1898 876.6157 198.66424 L 876.6157 171.72506 L 887.5597 171.72506 L 887.5597 161.7281 Z" fill="black"/>
          </g>
          <g id="Graphic_21">
            <path d="M 494.7317 269.012 L 494.7317 344.14708 L 510.2007 344.14708 L 510.2007 291.42626 L 510.41116 291.42626 L 528.8266 344.14708 L 541.5596 344.14708 L 559.97505 290.9001 L 560.1855 290.9001 L 560.1855 344.14708 L 575.6545 344.14708 L 575.6545 269.012 L 552.3984 269.012 L 535.7719 320.68053 L 535.5614 320.68053 L 517.9878 269.012 Z" fill="black"/>
          </g>
          <g id="Graphic_22">
            <path d="M 587.96655 306.4743 C 588.177 302.9666 589.0539 300.05523 590.5973 297.74013 C 592.1407 295.42503 594.105 293.56596 596.4903 292.16288 C 598.8755 290.7598 601.5589 289.7601 604.54046 289.1638 C 607.522 288.56747 610.5211 288.26932 613.5377 288.26932 C 616.27375 288.26932 619.0448 288.46224 621.851 288.8481 C 624.6572 289.23394 627.2178 289.9881 629.53286 291.11056 C 631.84796 292.23303 633.7421 293.79395 635.21535 295.79335 C 636.6886 297.79275 637.4252 300.44104 637.4252 303.7383 L 637.4252 332.0455 C 637.4252 334.5009 637.5655 336.85104 637.8461 339.096 C 638.12674 341.34093 638.6178 343.0246 639.31936 344.14708 L 624.1661 344.14708 C 623.88545 343.30523 623.65745 342.44585 623.4821 341.5689 C 623.3067 340.692 623.1839 339.79753 623.11376 338.8855 C 620.7285 341.34093 617.9224 343.0597 614.6953 344.04185 C 611.46816 345.024 608.17095 345.5151 604.8035 345.5151 C 602.2078 345.5151 599.7875 345.1994 597.5426 344.568 C 595.29764 343.9366 593.33334 342.95447 591.64964 341.62153 C 589.9659 340.2886 588.65055 338.6049 587.7035 336.57043 C 586.7564 334.53595 586.28285 332.11566 586.28285 329.3095 C 586.28285 326.2227 586.82654 323.67962 587.9139 321.68022 C 589.0013 319.68082 590.4044 318.08483 592.1232 316.8922 C 593.84196 315.69958 595.80626 314.80512 598.0161 314.2088 C 600.226 313.6125 602.45336 313.13896 604.6983 312.7882 C 606.94325 312.4374 609.1531 312.1568 611.3279 311.94634 C 613.50266 311.73587 615.4319 311.4202 617.1156 310.99926 C 618.7993 310.57833 620.1322 309.9645 621.1144 309.1577 C 622.0965 308.35093 622.5525 307.17586 622.4824 305.63247 C 622.4824 304.0189 622.2193 302.7386 621.69314 301.79153 C 621.167 300.84444 620.46545 300.10783 619.5885 299.58167 C 618.7116 299.0555 617.69436 298.70475 616.5368 298.52936 C 615.37926 298.35398 614.13404 298.2663 612.8011 298.2663 C 609.8546 298.2663 607.53955 298.89766 605.85585 300.16044 C 604.17214 301.42323 603.19 303.52783 602.9094 306.4743 Z M 622.4824 317.5236 C 621.851 318.08483 621.06176 318.5233 620.1147 318.83898 C 619.1676 319.15467 618.15036 319.41775 617.063 319.6282 C 615.9756 319.83868 614.8356 320.01406 613.64295 320.15437 C 612.4503 320.29468 611.2577 320.47006 610.0651 320.68053 C 608.9426 320.891 607.8377 321.1716 606.7503 321.52237 C 605.6629 321.87315 604.71585 322.3467 603.9091 322.943 C 603.1023 323.5393 602.4534 324.29346 601.9623 325.20547 C 601.4712 326.11747 601.2257 327.275 601.2257 328.6781 C 601.2257 330.01103 601.4712 331.1335 601.9623 332.0455 C 602.4534 332.9575 603.1198 333.67657 603.9617 334.20273 C 604.80354 334.7289 605.7857 335.0972 606.90816 335.30766 C 608.0306 335.51812 609.18816 335.62335 610.3808 335.62335 C 613.3273 335.62335 615.60726 335.13228 617.2208 334.1501 C 618.8344 333.16795 620.027 331.9929 620.7987 330.62487 C 621.5704 329.25686 622.0439 327.87133 622.2193 326.46824 C 622.3947 325.06515 622.4824 323.9427 622.4824 323.10084 Z" fill="black"/>
          </g>
          <g id="Graphic_23">
            <path d="M 649.0006 289.74256 L 649.0006 344.14708 L 663.94346 344.14708 L 663.94346 315.62943 C 663.94346 310.08723 664.85545 306.10602 666.6795 303.6857 C 668.5035 301.26536 671.4499 300.0552 675.5189 300.0552 C 679.0968 300.0552 681.5872 301.16013 682.9903 303.37 C 684.3934 305.57986 685.0949 308.9297 685.0949 313.41957 L 685.0949 344.14708 L 700.03775 344.14708 L 700.03775 310.68356 C 700.03775 307.31615 699.7396 304.24694 699.1433 301.47583 C 698.547 298.70473 697.5122 296.3546 696.039 294.42535 C 694.5657 292.4961 692.5488 290.9878 689.9882 289.9004 C 687.4275 288.813 684.1479 288.26932 680.1491 288.26932 C 676.9921 288.26932 673.90536 288.9884 670.8887 290.42656 C 667.8721 291.86473 665.4167 294.16225 663.5225 297.3192 L 663.20684 297.3192 L 663.20684 289.74256 Z" fill="black"/>
          </g>
          <g id="Graphic_24">
            <path d="M 710.7713 306.4743 C 710.9818 302.9666 711.8587 300.05523 713.4021 297.74013 C 714.9455 295.42503 716.9098 293.56596 719.2951 292.16288 C 721.6803 290.7598 724.3637 289.7601 727.34524 289.1638 C 730.3268 288.56747 733.3259 288.26932 736.3425 288.26932 C 739.0785 288.26932 741.8496 288.46224 744.6558 288.8481 C 747.46195 289.23394 750.02255 289.9881 752.33765 291.11056 C 754.65275 292.23303 756.5469 293.79395 758.0201 295.79335 C 759.4934 297.79275 760.23 300.44104 760.23 303.7383 L 760.23 332.0455 C 760.23 334.5009 760.3703 336.85104 760.6509 339.096 C 760.9315 341.34093 761.4226 343.0246 762.12415 344.14708 L 746.9709 344.14708 C 746.6902 343.30523 746.4622 342.44585 746.2869 341.5689 C 746.1115 340.692 745.9887 339.79753 745.91855 338.8855 C 743.5333 341.34093 740.7272 343.0597 737.50005 344.04185 C 734.27295 345.024 730.9757 345.5151 727.6083 345.5151 C 725.0126 345.5151 722.5923 345.1994 720.3474 344.568 C 718.1024 343.9366 716.1381 342.95447 714.4544 341.62153 C 712.7707 340.2886 711.4553 338.6049 710.50826 336.57043 C 709.5612 334.53595 709.0876 332.11566 709.0876 329.3095 C 709.0876 326.2227 709.6313 323.67962 710.7187 321.68022 C 711.8061 319.68082 713.2092 318.08483 714.928 316.8922 C 716.64675 315.69958 718.61105 314.80512 720.8209 314.2088 C 723.0308 313.6125 725.25815 313.13896 727.5031 312.7882 C 729.748 312.4374 731.9579 312.1568 734.13266 311.94634 C 736.30744 311.73587 738.2367 311.4202 739.9204 310.99926 C 741.6041 310.57833 742.937 309.9645 743.91916 309.1577 C 744.9013 308.35093 745.3573 307.17586 745.2872 305.63247 C 745.2872 304.0189 745.0241 302.7386 744.4979 301.79153 C 743.9718 300.84444 743.2702 300.10783 742.3933 299.58167 C 741.5164 299.0555 740.49915 298.70475 739.3416 298.52936 C 738.18405 298.35398 736.9388 298.2663 735.6059 298.2663 C 732.6594 298.2663 730.3443 298.89766 728.6606 300.16044 C 726.9769 301.42323 725.9948 303.52783 725.7142 306.4743 Z M 745.2872 317.5236 C 744.6558 318.08483 743.86654 318.5233 742.9195 318.83898 C 741.9724 319.15467 740.95515 319.41775 739.86776 319.6282 C 738.7804 319.83868 737.6404 320.01406 736.4477 320.15437 C 735.2551 320.29468 734.0625 320.47006 732.8699 320.68053 C 731.7474 320.891 730.6425 321.1716 729.5551 321.52237 C 728.4677 321.87315 727.5206 322.3467 726.7139 322.943 C 725.9071 323.5393 725.2582 324.29346 724.7671 325.20547 C 724.276 326.11747 724.0305 327.275 724.0305 328.6781 C 724.0305 330.01103 724.276 331.1335 724.7671 332.0455 C 725.2582 332.9575 725.9246 333.67657 726.7665 334.20273 C 727.6083 334.7289 728.5905 335.0972 729.71295 335.30766 C 730.8354 335.51812 731.99295 335.62335 733.1856 335.62335 C 736.1321 335.62335 738.41205 335.13228 740.0256 334.1501 C 741.63915 333.16795 742.8318 331.9929 743.6035 330.62487 C 744.3752 329.25686 744.8487 327.87133 745.0241 326.46824 C 745.1995 325.06515 745.2872 323.9427 745.2872 323.10084 Z" fill="black"/>
          </g>
          <g id="Graphic_25">
            <path d="M 797.1661 331.30887 C 794.851 331.30887 792.9218 330.8178 791.3784 329.83564 C 789.835 328.85348 788.5898 327.5907 787.6427 326.0473 C 786.6956 324.5039 786.0292 322.76762 785.6433 320.83837 C 785.2575 318.90912 785.06455 316.96237 785.06455 314.99804 C 785.06455 312.96356 785.2925 311.0168 785.74855 309.1577 C 786.2046 307.2986 786.9412 305.65 787.9584 304.21185 C 788.9756 302.77368 790.2384 301.6337 791.7467 300.79183 C 793.25505 299.94998 795.0615 299.52906 797.1661 299.52906 C 799.6215 299.52906 801.656 299.98506 803.2695 300.89706 C 804.8831 301.80907 806.1809 303.03676 807.1631 304.58015 C 808.1453 306.12355 808.8468 307.89493 809.2677 309.89433 C 809.6886 311.89373 809.8991 314.01587 809.8991 316.2608 C 809.8991 318.22514 809.636 320.10174 809.1099 321.8907 C 808.5837 323.67962 807.7945 325.2756 806.7422 326.6787 C 805.6899 328.0818 804.3569 329.20425 802.7434 330.0461 C 801.1298 330.88795 799.2708 331.30887 797.1661 331.30887 Z M 824.1053 340.67445 L 824.1053 289.74256 L 809.8991 289.74256 L 809.8991 297.0035 L 809.6886 297.0035 C 807.8646 293.84656 805.6022 291.60165 802.9012 290.2687 C 800.2003 288.93578 797.0609 288.26932 793.483 288.26932 C 789.6947 288.26932 786.3449 289.00593 783.4335 290.47918 C 780.5221 291.95242 778.0842 293.93425 776.1199 296.42474 C 774.1556 298.91522 772.6648 301.7915 771.6476 305.0537 C 770.6303 308.31588 770.1217 311.70078 770.1217 315.2085 C 770.1217 318.9267 770.5602 322.4519 771.4371 325.78424 C 772.314 329.11658 773.6996 332.02794 775.5937 334.51843 C 777.4879 337.0089 779.9082 338.9732 782.8547 340.41137 C 785.8012 341.84954 789.30885 342.5686 793.3778 342.5686 C 796.6751 342.5686 799.8144 341.8846 802.796 340.5166 C 805.7776 339.1486 808.0751 337.02645 809.6886 334.1501 L 809.8991 334.1501 L 809.8991 341.30584 C 809.9693 345.16433 809.0397 348.3563 807.1105 350.88187 C 805.1812 353.40744 802.112 354.6702 797.90275 354.6702 C 795.2369 354.6702 792.8867 354.1265 790.8523 353.0391 C 788.8178 351.9517 787.4498 350.00496 786.7482 347.1988 L 771.91065 347.1988 C 772.1211 350.2856 772.9805 352.93387 774.4888 355.14374 C 775.9971 357.3536 777.8913 359.16005 780.1713 360.56314 C 782.4513 361.96623 784.9768 363.001 787.7479 363.66746 C 790.519 364.33393 793.2375 364.66716 795.9034 364.66716 C 802.1471 364.66716 807.128 363.8253 810.8462 362.1416 C 814.5644 360.4579 817.4056 358.4059 819.3699 355.9856 C 821.3342 353.56526 822.6145 350.95204 823.21085 348.14586 C 823.8072 345.3397 824.1053 342.84924 824.1053 340.67445 Z" fill="black"/>
          </g>
          <g id="Graphic_26">
            <path d="M 872.7221 311.1045 L 848.4137 311.1045 C 848.4839 310.05217 848.7119 308.85956 849.0977 307.52663 C 849.4836 306.1937 850.15 304.93093 851.0971 303.7383 C 852.0442 302.54568 853.307 301.546 854.8854 300.7392 C 856.4639 299.93244 858.4457 299.52906 860.831 299.52906 C 864.479 299.52906 867.1975 300.5112 868.9864 302.47553 C 870.7754 304.43986 872.0206 307.31615 872.7221 311.1045 Z M 848.4137 320.5753 L 887.665 320.5753 C 887.9456 316.36603 887.5948 312.3322 886.6126 308.4737 C 885.6305 304.6152 884.0345 301.1777 881.8246 298.16105 C 879.6148 295.1444 876.7911 292.74166 873.3535 290.9527 C 869.9159 289.16378 865.8821 288.26932 861.2519 288.26932 C 857.1128 288.26932 853.3421 289.00593 849.9396 290.47918 C 846.5371 291.95242 843.6082 293.96933 841.1528 296.52997 C 838.6974 299.0906 836.8032 302.12474 835.4703 305.63247 C 834.1373 309.1402 833.4709 312.92847 833.4709 316.99743 C 833.4709 321.2067 834.1198 325.06514 835.4177 328.57286 C 836.7155 332.0806 838.5571 335.0972 840.9423 337.62275 C 843.3276 340.1483 846.2389 342.09506 849.6765 343.46308 C 853.1141 344.8311 856.9725 345.5151 861.2519 345.5151 C 867.4255 345.5151 872.687 344.112 877.0366 341.30584 C 881.3862 338.49966 884.6132 333.83446 886.7179 327.3101 L 873.564 327.3101 C 873.0729 328.9938 871.74 330.5898 869.5652 332.0981 C 867.3904 333.60643 864.7947 334.36058 861.7781 334.36058 C 857.5688 334.36058 854.3418 333.2732 852.0968 331.0984 C 849.8519 328.92362 848.6242 325.41595 848.4137 320.5753 Z" fill="black"/>
          </g>
          <g id="Graphic_27">
            <path d="M 896.9253 289.74256 L 896.9253 344.14708 L 911.8681 344.14708 L 911.8681 312.57772 C 911.8681 309.91185 912.254 307.75464 913.0257 306.106 C 913.7974 304.45738 914.7269 303.1946 915.8143 302.3177 C 916.9017 301.44075 918.0241 300.84445 919.1817 300.52875 C 920.3392 300.21306 921.2688 300.0552 921.9703 300.0552 C 924.3556 300.0552 926.162 300.4586 927.3897 301.26537 C 928.6174 302.07215 929.4943 303.142 930.0205 304.47492 C 930.5467 305.80786 930.8448 307.26354 930.915 308.842 C 930.9851 310.4205 931.0202 312.0165 931.0202 313.63004 L 931.0202 344.14708 L 945.963 344.14708 L 945.963 313.8405 C 945.963 312.1568 946.0858 310.49065 946.3313 308.842 C 946.5769 307.1934 947.068 305.72017 947.8046 304.4223 C 948.5412 303.12445 949.5584 302.07215 950.8563 301.26537 C 952.1541 300.4586 953.8554 300.0552 955.96 300.0552 C 958.0646 300.0552 959.7308 300.40598 960.9585 301.10753 C 962.1862 301.80907 963.1157 302.75614 963.7471 303.94877 C 964.3785 305.1414 964.7643 306.54446 964.9046 308.158 C 965.045 309.77157 965.1151 311.49033 965.1151 313.31434 L 965.1151 344.14708 L 980.0579 344.14708 L 980.0579 307.7371 C 980.0579 304.22937 979.5669 301.2303 978.5847 298.73982 C 977.6025 296.24934 976.2345 294.23243 974.4807 292.68903 C 972.7268 291.14563 970.6222 290.02318 968.1668 289.32163 C 965.7114 288.6201 963.0456 288.26932 960.1692 288.26932 C 956.3809 288.26932 953.1012 289.1813 950.3301 291.00533 C 947.559 292.82935 945.3667 294.93395 943.7532 297.3192 C 942.2799 293.9518 940.1227 291.60165 937.2815 290.2687 C 934.4402 288.93578 931.3008 288.26932 927.8633 288.26932 C 924.2854 288.26932 921.1109 289.041 918.3398 290.5844 C 915.5687 292.1278 913.2011 294.30256 911.2367 297.10874 L 911.0263 297.10874 L 911.0263 289.74256 Z" fill="black"/>
          </g>
          <g id="Graphic_28">
            <path d="M 1028.4643 311.1045 L 1004.1559 311.1045 C 1004.226 310.05217 1004.454 308.85956 1004.8399 307.52663 C 1005.2257 306.1937 1005.8922 304.93093 1006.8393 303.7383 C 1007.7863 302.54568 1009.0491 301.546 1010.6276 300.7392 C 1012.206 299.93244 1014.1879 299.52906 1016.5731 299.52906 C 1020.2212 299.52906 1022.9396 300.5112 1024.7286 302.47553 C 1026.5175 304.43986 1027.7627 307.31615 1028.4643 311.1045 Z M 1004.1559 320.5753 L 1043.4071 320.5753 C 1043.6877 316.36603 1043.337 312.3322 1042.3548 308.4737 C 1041.3726 304.6152 1039.7766 301.1777 1037.5668 298.16105 C 1035.3569 295.1444 1032.5332 292.74166 1029.0957 290.9527 C 1025.6581 289.16378 1021.6243 288.26932 1016.9941 288.26932 C 1012.855 288.26932 1009.0842 289.00593 1005.6817 290.47918 C 1002.2792 291.95242 999.3503 293.96933 996.8949 296.52997 C 994.4395 299.0906 992.5454 302.12474 991.2124 305.63247 C 989.8795 309.1402 989.213 312.92847 989.213 316.99743 C 989.213 321.2067 989.862 325.06514 991.1598 328.57286 C 992.4577 332.0806 994.2992 335.0972 996.6845 337.62275 C 999.0697 340.1483 1001.9811 342.09506 1005.4186 343.46308 C 1008.8562 344.8311 1012.7146 345.5151 1016.9941 345.5151 C 1023.1677 345.5151 1028.4292 344.112 1032.7787 341.30584 C 1037.1283 338.49966 1040.3554 333.83446 1042.46 327.3101 L 1029.3061 327.3101 C 1028.815 328.9938 1027.4821 330.5898 1025.3073 332.0981 C 1023.1325 333.60643 1020.5369 334.36058 1017.5202 334.36058 C 1013.311 334.36058 1010.0839 333.2732 1007.839 331.0984 C 1005.594 328.92362 1004.3663 325.41595 1004.1559 320.5753 Z" fill="black"/>
          </g>
          <g id="Graphic_29">
            <path d="M 1052.2465 289.74256 L 1052.2465 344.14708 L 1067.1893 344.14708 L 1067.1893 315.62943 C 1067.1893 310.08723 1068.1013 306.10602 1069.9254 303.6857 C 1071.7494 301.26536 1074.6958 300.0552 1078.7648 300.0552 C 1082.3427 300.0552 1084.8331 301.16013 1086.2362 303.37 C 1087.6393 305.57986 1088.3408 308.9297 1088.3408 313.41957 L 1088.3408 344.14708 L 1103.2836 344.14708 L 1103.2836 310.68356 C 1103.2836 307.31615 1102.9855 304.24694 1102.3892 301.47583 C 1101.7929 298.70473 1100.7581 296.3546 1099.2849 294.42535 C 1097.8116 292.4961 1095.7947 290.9878 1093.234 289.9004 C 1090.6734 288.813 1087.3938 288.26932 1083.395 288.26932 C 1080.238 288.26932 1077.1512 288.9884 1074.1346 290.42656 C 1071.118 291.86473 1068.6626 294.16225 1066.7684 297.3192 L 1066.4527 297.3192 L 1066.4527 289.74256 Z" fill="black"/>
          </g>
          <g id="Graphic_30">
            <path d="M 1133.5902 289.74256 L 1133.5902 273.43172 L 1118.6474 273.43172 L 1118.6474 289.74256 L 1109.5975 289.74256 L 1109.5975 299.73952 L 1118.6474 299.73952 L 1118.6474 331.83503 C 1118.6474 334.57105 1119.1034 336.7809 1120.0154 338.4646 C 1120.9274 340.1483 1122.1726 341.44614 1123.7511 342.35815 C 1125.3296 343.27016 1127.1536 343.884 1129.2231 344.1997 C 1131.2927 344.5154 1133.485 344.67323 1135.8001 344.67323 C 1137.2733 344.67323 1138.7816 344.63816 1140.325 344.568 C 1141.8684 344.49785 1143.2715 344.35754 1144.5343 344.14708 L 1144.5343 332.57165 C 1143.8327 332.71196 1143.0961 332.8172 1142.3244 332.88734 C 1141.5527 332.9575 1140.746 332.99257 1139.9041 332.99257 C 1137.3785 332.99257 1135.6948 332.57165 1134.853 331.7298 C 1134.0111 330.88795 1133.5902 329.20426 1133.5902 326.6787 L 1133.5902 299.73952 L 1144.5343 299.73952 L 1144.5343 289.74256 Z" fill="black"/>
          </g>
          <g id="Graphic_31">
            <path d="M 505.99145 447.22175 L 489.9963 447.22175 C 489.92616 451.85195 490.768 455.8507 492.52186 459.2181 C 494.2757 462.5855 496.6434 465.3566 499.62497 467.53137 C 502.60653 469.70616 506.04405 471.30215 509.9376 472.3194 C 513.8312 473.33663 517.8475 473.84524 521.9866 473.84524 C 527.1079 473.84524 531.6152 473.24894 535.5088 472.0563 C 539.4024 470.8637 542.6645 469.19754 545.2953 467.05783 C 547.9261 464.9181 549.9079 462.37506 551.24086 459.42857 C 552.5738 456.4821 553.24026 453.2901 553.24026 449.85253 C 553.24026 445.64326 552.3458 442.1882 550.55686 439.48726 C 548.7679 436.7863 546.6458 434.6291 544.1904 433.01554 C 541.73497 431.402 539.26206 430.2269 536.7716 429.4903 C 534.2811 428.7537 532.33433 428.24506 530.93124 427.96445 C 526.2309 426.7718 522.4251 425.78967 519.51366 425.01797 C 516.60225 424.24627 514.32227 423.4746 512.67363 422.7029 C 511.025 421.9312 509.9201 421.08935 509.35885 420.17734 C 508.7976 419.26533 508.517 418.0727 508.517 416.5995 C 508.517 414.98593 508.8678 413.653 509.5693 412.6007 C 510.27086 411.5484 511.1653 410.67146 512.2527 409.9699 C 513.3401 409.26837 514.55025 408.7773 515.8832 408.4967 C 517.2161 408.21606 518.54904 408.07575 519.882 408.07575 C 521.91645 408.07575 523.79305 408.25114 525.51184 408.6019 C 527.2306 408.9527 528.75646 409.549 530.0894 410.39084 C 531.4223 411.2327 532.4922 412.3902 533.29895 413.86347 C 534.1057 415.3367 534.57926 417.1958 534.71957 419.4407 L 550.7147 419.4407 C 550.7147 415.09114 549.8904 411.39055 548.2418 408.33883 C 546.59314 405.2871 544.3658 402.77913 541.5596 400.8148 C 538.7534 398.8505 535.5439 397.42987 531.93094 396.55294 C 528.318 395.676 524.54724 395.23755 520.6186 395.23755 C 517.2512 395.23755 513.8838 395.69355 510.5164 396.60555 C 507.149 397.51756 504.1324 398.92063 501.4665 400.8148 C 498.80064 402.70897 496.6434 405.07665 494.9948 407.9179 C 493.34617 410.75916 492.52186 414.109 492.52186 417.9675 C 492.52186 421.40505 493.1708 424.33396 494.46864 426.7543 C 495.7665 429.1746 497.4677 431.19153 499.57235 432.8051 C 501.677 434.41863 504.0622 435.734 506.7281 436.75125 C 509.39394 437.7685 512.1299 438.62787 514.9361 439.3294 C 517.6721 440.1011 520.37304 440.80265 523.0389 441.43404 C 525.7048 442.06543 528.09 442.80204 530.1946 443.6439 C 532.29926 444.48575 534.0005 445.53805 535.29834 446.80083 C 536.5962 448.0636 537.2451 449.7122 537.2451 451.7467 C 537.2451 453.64086 536.75404 455.2018 535.7719 456.4295 C 534.7897 457.6572 533.562 458.6218 532.0888 459.32334 C 530.61554 460.0249 529.0371 460.4984 527.3534 460.74396 C 525.6697 460.9895 524.0912 461.11227 522.618 461.11227 C 520.4432 461.11227 518.3386 460.8492 516.3041 460.32303 C 514.26963 459.7969 512.49826 458.9901 510.98994 457.9027 C 509.4816 456.8153 508.27147 455.3947 507.35946 453.64085 C 506.44745 451.887 505.99145 449.7473 505.99145 447.22175 Z" fill="black"/>
          </g>
          <g id="Graphic_32">
            <path d="M 588.28224 478.89634 L 611.0122 417.757 L 595.5432 417.757 L 583.6521 455.00886 L 583.4416 455.00886 L 571.12956 417.757 L 555.23965 417.757 L 574.2865 468.79414 C 574.7074 469.84646 574.9179 470.9689 574.9179 472.16154 C 574.9179 473.7751 574.44434 475.2483 573.49726 476.58125 C 572.5502 477.9142 571.0945 478.6859 569.13016 478.89634 C 567.6569 478.9665 566.1837 478.9314 564.71045 478.7911 C 563.2372 478.6508 561.79907 478.5105 560.396 478.3702 L 560.396 490.68223 C 561.9394 490.82254 563.4652 490.9453 564.9735 491.05054 C 566.48185 491.1558 568.0077 491.2084 569.5511 491.2084 C 574.67236 491.2084 578.6711 490.2613 581.54744 488.36714 C 584.4238 486.473 586.6687 483.31607 588.28224 478.89634 Z" fill="black"/>
          </g>
          <g id="Graphic_33">
            <path d="M 627.6387 454.4827 L 613.4325 454.4827 C 613.5728 458.13074 614.3971 461.16487 615.9054 463.5852 C 617.41374 466.00553 619.343 467.9523 621.69314 469.42553 C 624.0433 470.8988 626.7267 471.9511 629.7433 472.58247 C 632.76 473.21386 635.8467 473.52955 639.0037 473.52955 C 642.0905 473.52955 645.1246 473.2314 648.1062 472.6351 C 651.0877 472.03877 653.736 471.004 656.0511 469.53076 C 658.3662 468.0575 660.2428 466.11076 661.681 463.69043 C 663.11915 461.2701 663.8382 458.27104 663.8382 454.69317 C 663.8382 452.1676 663.34715 450.04546 662.365 448.3267 C 661.3828 446.6079 660.085 445.16975 658.4714 444.0122 C 656.8579 442.85465 655.01636 441.9251 652.9468 441.2236 C 650.87724 440.52203 648.7551 439.92573 646.5803 439.43465 C 644.4757 438.94356 642.40615 438.48757 640.3717 438.06664 C 638.3372 437.6457 636.53074 437.1722 634.9523 436.646 C 633.3738 436.11986 632.0935 435.43586 631.1113 434.594 C 630.1292 433.75216 629.6381 432.6648 629.6381 431.33184 C 629.6381 430.20937 629.9187 429.3149 630.47994 428.64845 C 631.0412 427.982 631.7252 427.47337 632.53195 427.1226 C 633.3387 426.7718 634.2332 426.54383 635.21535 426.4386 C 636.1975 426.33336 637.1095 426.28075 637.95136 426.28075 C 640.6172 426.28075 642.9323 426.78936 644.8966 427.8066 C 646.86094 428.82384 647.9483 430.7706 648.1588 433.64693 L 662.365 433.64693 C 662.0844 430.2795 661.225 427.4909 659.7868 425.28105 C 658.34866 423.0712 656.5422 421.2998 654.3674 419.9669 C 652.1926 418.63394 649.7197 417.68687 646.9486 417.12564 C 644.1775 416.5644 641.3188 416.2838 638.3723 416.2838 C 635.4258 416.2838 632.5495 416.54686 629.7433 417.073 C 626.93715 417.5992 624.4116 418.51117 622.1667 419.80903 C 619.9217 421.1069 618.1153 422.87826 616.7473 425.1232 C 615.37926 427.36815 614.6953 430.24444 614.6953 433.75216 C 614.6953 436.1374 615.18634 438.1543 616.1685 439.80295 C 617.1507 441.4516 618.4485 442.8196 620.06206 443.90697 C 621.6756 444.99436 623.5171 445.8713 625.5867 446.53775 C 627.65625 447.2042 629.7784 447.783 631.9532 448.27406 C 637.2849 449.39654 641.4415 450.519 644.4231 451.64146 C 647.40464 452.76393 648.8954 454.4476 648.8954 456.69256 C 648.8954 458.0255 648.5797 459.1304 647.9483 460.00734 C 647.3169 460.88427 646.5277 461.5858 645.5806 462.11196 C 644.6335 462.6381 643.5812 463.02397 642.4237 463.2695 C 641.2661 463.51505 640.1612 463.6378 639.1089 463.6378 C 637.63566 463.6378 636.21505 463.46243 634.847 463.11166 C 633.479 462.7609 632.2689 462.2172 631.21656 461.4806 C 630.16424 460.74396 629.3049 459.7969 628.6384 458.63934 C 627.9719 457.4818 627.6387 456.09626 627.6387 454.4827 Z" fill="black"/>
          </g>
          <g id="Graphic_34">
            <path d="M 691.514 417.757 L 691.514 401.4462 L 676.5712 401.4462 L 676.5712 417.757 L 667.5213 417.757 L 667.5213 427.754 L 676.5712 427.754 L 676.5712 459.8495 C 676.5712 462.5855 677.0272 464.79535 677.9392 466.47906 C 678.8512 468.16277 680.0964 469.4606 681.6749 470.3726 C 683.2534 471.2846 685.0774 471.89846 687.1469 472.21416 C 689.2165 472.52985 691.4088 472.6877 693.7239 472.6877 C 695.1971 472.6877 696.7054 472.6526 698.2488 472.58247 C 699.7922 472.5123 701.1953 472.372 702.4581 472.16154 L 702.4581 460.5861 C 701.7565 460.7264 701.0199 460.83165 700.2482 460.9018 C 699.4765 460.97196 698.66975 461.00704 697.8279 461.00704 C 695.3023 461.00704 693.61866 460.5861 692.7768 459.74426 C 691.93495 458.9024 691.514 457.21873 691.514 454.69317 L 691.514 427.754 L 702.4581 427.754 L 702.4581 417.757 Z" fill="black"/>
          </g>
          <g id="Graphic_35">
            <path d="M 746.2342 439.11895 L 721.9258 439.11895 C 721.996 438.06663 722.224 436.87403 722.6098 435.5411 C 722.9957 434.20816 723.66215 432.9454 724.6092 431.75277 C 725.5563 430.56014 726.8191 429.56046 728.39756 428.7537 C 729.976 427.9469 731.9579 427.5435 734.3431 427.5435 C 737.99115 427.5435 740.7096 428.52567 742.4985 430.49 C 744.2875 432.4543 745.5327 435.3306 746.2342 439.11895 Z M 721.9258 448.58976 L 761.1771 448.58976 C 761.4577 444.3805 761.1069 440.34667 760.1248 436.48817 C 759.1426 432.6297 757.5466 429.19216 755.3367 426.1755 C 753.1269 423.15887 750.3032 420.7561 746.8656 418.9672 C 743.4281 417.17824 739.3942 416.2838 734.764 416.2838 C 730.6249 416.2838 726.8542 417.0204 723.4517 418.49364 C 720.0492 419.9669 717.1203 421.9838 714.6649 424.54443 C 712.2095 427.10507 710.3153 430.1392 708.9824 433.64693 C 707.6495 437.15465 706.983 440.94294 706.983 445.0119 C 706.983 449.22117 707.6319 453.0796 708.9298 456.58733 C 710.22765 460.09505 712.0692 463.11165 714.4544 465.6372 C 716.8397 468.16277 719.75104 470.1095 723.1886 471.47754 C 726.6262 472.84555 730.4846 473.52955 734.764 473.52955 C 740.9376 473.52955 746.1991 472.1265 750.5487 469.3203 C 754.8983 466.5141 758.12535 461.8489 760.23 455.32455 L 747.0761 455.32455 C 746.585 457.00826 745.2521 458.60425 743.0773 460.11257 C 740.9025 461.6209 738.3068 462.37504 735.2902 462.37504 C 731.0809 462.37504 727.8539 461.28766 725.6089 459.1129 C 723.364 456.9381 722.1363 453.4304 721.9258 448.58976 Z" fill="black"/>
          </g>
          <g id="Graphic_36">
            <path d="M 770.4374 417.757 L 770.4374 472.16154 L 785.3802 472.16154 L 785.3802 440.5922 C 785.3802 437.9263 785.7661 435.7691 786.5378 434.12047 C 787.3095 432.47184 788.239 431.2091 789.3264 430.33215 C 790.4138 429.4552 791.5363 428.8589 792.6938 428.5432 C 793.8514 428.2275 794.7809 428.0697 795.4824 428.0697 C 797.8677 428.0697 799.6741 428.47306 800.9018 429.27984 C 802.1295 430.0866 803.0065 431.15645 803.5326 432.4894 C 804.0588 433.8223 804.3569 435.278 804.4271 436.8565 C 804.4972 438.43496 804.5323 440.03095 804.5323 441.6445 L 804.5323 472.16154 L 819.4751 472.16154 L 819.4751 441.85496 C 819.4751 440.17126 819.5979 438.5051 819.8435 436.8565 C 820.089 435.20785 820.5801 433.73463 821.3167 432.43677 C 822.0533 431.1389 823.0705 430.0866 824.3684 429.27984 C 825.6663 428.47306 827.3675 428.0697 829.4721 428.0697 C 831.5767 428.0697 833.2429 428.42044 834.4706 429.122 C 835.6983 429.82353 836.6278 430.7706 837.2592 431.96323 C 837.8906 433.15586 838.2764 434.55893 838.4168 436.1725 C 838.5571 437.78603 838.6272 439.5048 838.6272 441.3288 L 838.6272 472.16154 L 853.57 472.16154 L 853.57 435.75155 C 853.57 432.24383 853.079 429.24477 852.0968 426.7543 C 851.1146 424.2638 849.7467 422.2469 847.9928 420.7035 C 846.2389 419.1601 844.1343 418.03764 841.6789 417.3361 C 839.2235 416.63455 836.5577 416.2838 833.6814 416.2838 C 829.893 416.2838 826.6133 417.1958 823.8422 419.0198 C 821.0711 420.8438 818.8788 422.9484 817.2653 425.33367 C 815.792 421.96625 813.6348 419.6161 810.7936 418.2832 C 807.9523 416.95024 804.81295 416.2838 801.3754 416.2838 C 797.7975 416.2838 794.6231 417.05547 791.852 418.59887 C 789.0809 420.14227 786.7132 422.31703 784.7489 425.1232 L 784.5384 425.1232 L 784.5384 417.757 Z" fill="black"/>
          </g>
        </g>
      </g>
    </g>
  </g>
</svg>
