<?xml version="1.0" encoding="UTF-8" standalone="no"?>
<!DOCTYPE svg PUBLIC "-//W3C//DTD SVG 1.1//EN" "http://www.w3.org/Graphics/SVG/1.1/DTD/svg11.dtd">
<svg xmlns:dc="http://purl.org/dc/elements/1.1/" xmlns:xl="http://www.w3.org/1999/xlink" version="1.1" xmlns="http://www.w3.org/2000/svg" viewBox="0 0 100 100" width="100" height="100">
  <defs/>
  <metadata> Produced by OmniGraffle 7.7.1 
    <dc:date>2018-03-08 23:05:59 +0000</dc:date>
  </metadata>
  <g id="Canvas_2" fill-opacity="1" stroke-dasharray="none" stroke="none" stroke-opacity="1" fill="none">
    <title>Canvas 2</title>
    <g id="Canvas_2: Layer 1">
      <title>Layer 1</title>
      <g id="Group_13">
        <title>CS</title>
        <g id="Graphic_12">
          <path d="M 36.11405 41.22741 L 46.941143 41.22741 C 46.60873 38.114944 45.801455 35.353928 44.519293 32.944277 C 43.23713 30.534627 41.61071 28.514064 39.63998 26.88253 C 37.66925 25.250996 35.43737 24.008538 32.944277 23.15512 C 30.451184 22.301703 27.803797 21.875 25.002035 21.875 C 21.108062 21.875 17.605912 22.602904 14.495482 24.058735 C 11.385052 25.514566 8.761408 27.522578 6.624471 30.08283 C 4.487534 32.643085 2.8492405 35.642553 1.7095409 39.081325 C .56984126 42.5201 -2842171e-20 46.24747 -2842171e-20 50.263554 C -2842171e-20 54.179236 .56984126 57.83131 1.7095409 61.21988 C 2.8492405 64.60845 4.487534 67.55772 6.624471 70.06777 C 8.761408 72.57782 11.385052 74.54819 14.495482 75.97892 C 17.605912 77.40965 21.108062 78.125 25.002035 78.125 C 28.13621 78.125 31.00916 77.623 33.62097 76.61898 C 36.23278 75.614955 38.512147 74.15915 40.459134 72.25151 C 42.40612 70.34387 43.973184 68.03465 45.16037 65.323795 C 46.34756 62.61294 47.083603 59.57582 47.36853 56.21235 L 36.541436 56.21235 C 36.11405 59.826825 34.93875 62.73844 33.015508 64.94729 C 31.092265 67.156136 28.421134 68.26054 25.002035 68.26054 C 22.485199 68.26054 20.348294 67.74599 18.591257 66.71687 C 16.83422 65.687746 15.409617 64.31979 14.317405 62.61295 C 13.225193 60.906116 12.429789 58.985954 11.93117 56.85241 C 11.432552 54.718865 11.183246 52.5226 11.183246 50.263554 C 11.183246 47.904105 11.432552 45.61999 11.93117 43.411145 C 12.429789 41.2023 13.225193 39.231936 14.317405 37.5 C 15.409617 35.768064 16.83422 34.387555 18.591257 33.358434 C 20.348294 32.329312 22.485199 31.81476 25.002035 31.81476 C 26.379172 31.81476 27.69693 32.05321 28.95535 32.53012 C 30.213767 33.00703 31.341578 33.672184 32.338815 34.525602 C 33.33605 35.37902 34.16707 36.370476 34.831895 37.5 C 35.49672 38.629524 35.9241 39.87198 36.11405 41.22741 Z" fill="black"/>
        </g>
        <g id="Graphic_11">
          <path d="M 65.75016 59.073795 L 54.743865 59.073795 C 54.69559 62.387065 55.274864 65.24848 56.4817 67.65813 C 57.68854 70.06778 59.31774 72.050695 61.36936 73.60693 C 63.420985 75.16316 65.78635 76.30522 68.465525 77.03313 C 71.1447 77.76105 73.908315 78.125 76.75645 78.125 C 80.28041 78.125 83.38193 77.6983 86.06111 76.84488 C 88.74029 75.99146 90.98497 74.7992 92.79522 73.26807 C 94.60548 71.73694 95.96918 69.91718 96.88638 67.808735 C 97.80357 65.70029 98.26216 63.41618 98.26216 60.956325 C 98.26216 57.94426 97.64669 55.4719 96.41571 53.539157 C 95.18474 51.606416 93.72449 50.062757 92.03492 48.90813 C 90.34535 47.75351 88.64374 46.912653 86.93003 46.38554 C 85.21632 45.85843 83.87675 45.49448 82.91128 45.293675 C 79.67696 44.440257 77.05817 43.73745 75.05482 43.18524 C 73.05147 42.63303 71.48261 42.080826 70.34818 41.528614 C 69.21375 40.976403 68.45346 40.374 68.06727 39.721386 C 67.68108 39.06877 67.48799 38.215367 67.48799 37.161145 C 67.48799 36.00652 67.72936 35.052715 68.21209 34.2997 C 68.694825 33.546683 69.3103 32.91918 70.05854 32.41717 C 70.80678 31.91516 71.63948 31.563756 72.55668 31.36295 C 73.473875 31.162148 74.39106 31.061747 75.30825 31.061747 C 76.70818 31.061747 77.99948 31.187248 79.18218 31.438253 C 80.36488 31.68926 81.41481 32.11596 82.332 32.718373 C 83.2492 33.320786 83.98536 34.14909 84.5405 35.203313 C 85.09565 36.257535 85.42149 37.587843 85.51804 39.194277 L 96.52433 39.194277 C 96.52433 36.08181 95.95712 33.433746 94.8227 31.25 C 93.68827 29.066254 92.15561 27.271593 90.22467 25.865964 C 88.29374 24.460334 86.08526 23.443778 83.59918 22.816265 C 81.11309 22.188752 78.51843 21.875 75.81512 21.875 C 73.497996 21.875 71.180905 22.201302 68.86378 22.853916 C 66.54665 23.50653 64.470926 24.510535 62.636535 25.865964 C 60.80214 27.221392 59.31776 28.915652 58.18333 30.948795 C 57.048905 32.981938 56.4817 35.379002 56.4817 38.14006 C 56.4817 40.59991 56.92822 42.695774 57.82128 44.42771 C 58.71434 46.159647 59.884954 47.602906 61.33316 48.75753 C 62.78136 49.912154 64.422634 50.85341 66.257026 51.581325 C 68.09142 52.30924 69.97405 52.924194 71.90499 53.426205 C 73.78766 53.978416 75.64616 54.48042 77.48055 54.93223 C 79.31494 55.38404 80.95621 55.91114 82.40441 56.513554 C 83.85262 57.11597 85.02323 57.86897 85.91629 58.77259 C 86.80935 59.67621 87.25587 60.85592 87.25587 62.31175 C 87.25587 63.667175 86.91796 64.78413 86.24213 65.66265 C 85.56631 66.54117 84.72153 67.23142 83.70779 67.73343 C 82.69405 68.235444 81.60791 68.5743 80.44935 68.75 C 79.29079 68.9257 78.20465 69.013554 77.19091 69.013554 C 75.69443 69.013554 74.24625 68.8253 72.84632 68.448795 C 71.44639 68.07229 70.2275 67.49498 69.18962 66.71687 C 68.15174 65.93875 67.31904 64.922195 66.691484 63.66717 C 66.06393 62.41214 65.75016 60.88103 65.75016 59.073795 Z" fill="black"/>
        </g>
      </g>
    </g>
  </g>
</svg>
